<svg width="1441" height="477" viewBox="0 0 1441 477" fill="none" xmlns="http://www.w3.org/2000/svg">
<path d="M268.103 323H255.495V279.864H267.783C274.098 279.864 279.282 281.827 283.335 285.752C287.388 289.677 289.415 294.819 289.415 301.176C289.415 305.059 288.668 308.621 287.175 311.864C285.682 315.064 283.271 317.731 279.943 319.864C276.658 321.955 272.711 323 268.103 323ZM267.783 283.512H259.463V319.352H268.103C271.047 319.352 273.65 318.84 275.911 317.816C278.172 316.792 279.964 315.405 281.287 313.656C282.61 311.907 283.591 309.987 284.231 307.896C284.914 305.805 285.255 303.565 285.255 301.176C285.255 296.269 283.612 292.109 280.327 288.696C277.084 285.24 272.903 283.512 267.783 283.512ZM301.337 323H297.433V290.552H301.337V323ZM301.273 278.264C301.827 278.776 302.105 279.416 302.105 280.184C302.105 280.952 301.827 281.592 301.273 282.104C300.761 282.616 300.121 282.872 299.353 282.872C298.585 282.872 297.945 282.616 297.433 282.104C296.921 281.592 296.665 280.952 296.665 280.184C296.665 279.416 296.921 278.776 297.433 278.264C297.945 277.709 298.585 277.432 299.353 277.432C300.121 277.432 300.761 277.709 301.273 278.264ZM336.454 320.504C336.454 325.411 335.131 329.08 332.486 331.512C329.84 333.987 326.427 335.224 322.246 335.224C318.534 335.224 315.376 334.605 312.774 333.368V329.528C315.419 330.851 318.47 331.512 321.926 331.512C325.168 331.512 327.75 330.616 329.67 328.824C331.59 327.075 332.55 324.301 332.55 320.504V316.28C330.374 320.248 327.131 322.232 322.822 322.232C319.067 322.232 315.867 320.845 313.222 318.072C310.619 315.299 309.318 311.544 309.318 306.808C309.318 301.944 310.512 297.933 312.902 294.776C315.334 291.619 318.512 290.04 322.438 290.04C327.088 290.04 330.459 292.109 332.55 296.248V290.552H336.454V320.504ZM313.414 306.616C313.414 310.499 314.395 313.464 316.358 315.512C318.32 317.517 320.496 318.52 322.885 318.52C325.318 318.52 327.536 317.581 329.542 315.704C331.547 313.784 332.55 310.861 332.55 306.936C332.55 302.456 331.59 299.149 329.67 297.016C327.75 294.84 325.595 293.752 323.206 293.752C320.176 293.752 317.787 294.947 316.038 297.336C314.288 299.725 313.414 302.819 313.414 306.616ZM349.962 323H346.058V290.552H349.962V323ZM349.898 278.264C350.452 278.776 350.73 279.416 350.73 280.184C350.73 280.952 350.452 281.592 349.898 282.104C349.386 282.616 348.746 282.872 347.978 282.872C347.21 282.872 346.57 282.616 346.058 282.104C345.546 281.592 345.29 280.952 345.29 280.184C345.29 279.416 345.546 278.776 346.058 278.264C346.57 277.709 347.21 277.432 347.978 277.432C348.746 277.432 349.386 277.709 349.898 278.264ZM375.479 322.104C374.241 322.915 372.812 323.32 371.191 323.32C365.047 323.32 361.975 320.163 361.975 313.848V293.88H356.663V290.552H361.975V282.424H365.943V290.552H375.223V293.88H365.943V314.04C365.943 317.752 367.671 319.608 371.127 319.608C372.833 319.608 374.284 319.117 375.479 318.136V322.104ZM392.647 319.736C395.207 319.736 397.255 319.032 398.791 317.624C400.327 316.216 401.095 314.424 401.095 312.248V307.576H394.759C391.73 307.576 389.468 308.173 387.975 309.368C386.482 310.52 385.735 311.971 385.735 313.72C385.735 315.512 386.311 316.963 387.463 318.072C388.658 319.181 390.386 319.736 392.647 319.736ZM401.095 319.224C399.303 321.955 396.188 323.32 391.751 323.32C388.764 323.32 386.311 322.445 384.391 320.696C382.514 318.904 381.575 316.621 381.575 313.848C381.575 310.733 382.77 308.323 385.159 306.616C387.591 304.867 390.791 303.992 394.759 303.992H401.095V302.52C401.095 299.619 400.476 297.443 399.239 295.992C398.002 294.499 395.932 293.752 393.031 293.752C389.66 293.752 386.631 294.669 383.943 296.504V292.28C386.418 290.787 389.468 290.04 393.095 290.04C401.031 290.04 404.999 294.2 404.999 302.52V323H401.095V319.224ZM418.524 323H414.62V277.752H418.524V323ZM456.853 323H444.245V279.864H456.533C462.848 279.864 468.032 281.827 472.085 285.752C476.138 289.677 478.165 294.819 478.165 301.176C478.165 305.059 477.418 308.621 475.925 311.864C474.432 315.064 472.021 317.731 468.693 319.864C465.408 321.955 461.461 323 456.853 323ZM456.533 283.512H448.213V319.352H456.853C459.797 319.352 462.4 318.84 464.661 317.816C466.922 316.792 468.714 315.405 470.037 313.656C471.36 311.907 472.341 309.987 472.981 307.896C473.664 305.805 474.005 303.565 474.005 301.176C474.005 296.269 472.362 292.109 469.077 288.696C465.834 285.24 461.653 283.512 456.533 283.512ZM509.159 321.4C506.599 322.68 503.612 323.32 500.199 323.32C495.377 323.32 491.452 321.827 488.423 318.84C485.436 315.811 483.943 311.843 483.943 306.936C483.943 301.731 485.265 297.635 487.911 294.648C490.556 291.661 493.991 290.168 498.215 290.168C502.183 290.168 505.34 291.469 507.687 294.072C510.033 296.675 511.207 300.344 511.207 305.08C511.207 306.531 511.121 307.683 510.951 308.536H488.039C488.337 312.12 489.575 314.872 491.751 316.792C493.927 318.669 496.807 319.608 500.391 319.608C504.06 319.608 506.983 318.883 509.159 317.432V321.4ZM498.087 293.816C495.356 293.816 493.073 294.776 491.239 296.696C489.404 298.616 488.337 301.368 488.039 304.952H507.175V303.48C507.175 300.536 506.343 298.189 504.679 296.44C503.057 294.691 500.86 293.816 498.087 293.816ZM537.994 314.68C537.994 317.368 537.055 319.501 535.178 321.08C533.343 322.616 530.805 323.384 527.562 323.384C523.637 323.384 520.479 322.744 518.09 321.464V317.432C520.949 319.053 524.021 319.864 527.306 319.864C529.482 319.864 531.125 319.416 532.234 318.52C533.386 317.624 533.962 316.451 533.962 315C533.962 313.293 533.365 311.971 532.17 311.032C531.018 310.093 529.098 309.091 526.41 308.024C523.807 307 521.738 305.805 520.202 304.44C518.666 303.075 517.898 301.197 517.898 298.808C517.898 296.205 518.858 294.136 520.778 292.6C522.698 291.021 525.109 290.232 528.01 290.232C531.509 290.232 534.197 290.723 536.074 291.704V295.608C534.069 294.456 531.359 293.88 527.946 293.88C526.069 293.88 524.575 294.328 523.466 295.224C522.399 296.077 521.866 297.208 521.866 298.616C521.866 299.469 522.015 300.216 522.314 300.856C522.655 301.496 523.21 302.093 523.978 302.648C524.789 303.16 525.471 303.544 526.026 303.8C526.581 304.056 527.477 304.44 528.714 304.952C531.701 306.147 533.983 307.469 535.562 308.92C537.183 310.328 537.994 312.248 537.994 314.68ZM549.274 323H545.37V290.552H549.274V323ZM549.21 278.264C549.765 278.776 550.042 279.416 550.042 280.184C550.042 280.952 549.765 281.592 549.21 282.104C548.698 282.616 548.058 282.872 547.29 282.872C546.522 282.872 545.882 282.616 545.37 282.104C544.858 281.592 544.602 280.952 544.602 280.184C544.602 279.416 544.858 278.776 545.37 278.264C545.882 277.709 546.522 277.432 547.29 277.432C548.058 277.432 548.698 277.709 549.21 278.264ZM584.391 320.504C584.391 325.411 583.068 329.08 580.423 331.512C577.778 333.987 574.364 335.224 570.183 335.224C566.471 335.224 563.314 334.605 560.711 333.368V329.528C563.356 330.851 566.407 331.512 569.863 331.512C573.106 331.512 575.687 330.616 577.607 328.824C579.527 327.075 580.487 324.301 580.487 320.504V316.28C578.311 320.248 575.068 322.232 570.759 322.232C567.004 322.232 563.804 320.845 561.159 318.072C558.556 315.299 557.255 311.544 557.255 306.808C557.255 301.944 558.45 297.933 560.839 294.776C563.271 291.619 566.45 290.04 570.375 290.04C575.026 290.04 578.396 292.109 580.487 296.248V290.552H584.391V320.504ZM561.351 306.616C561.351 310.499 562.332 313.464 564.295 315.512C566.258 317.517 568.434 318.52 570.823 318.52C573.255 318.52 575.474 317.581 577.479 315.704C579.484 313.784 580.487 310.861 580.487 306.936C580.487 302.456 579.527 299.149 577.607 297.016C575.687 294.84 573.532 293.752 571.143 293.752C568.114 293.752 565.724 294.947 563.975 297.336C562.226 299.725 561.351 302.819 561.351 306.616ZM618.251 323H614.347V301.56C614.347 299.043 613.707 297.123 612.427 295.8C611.147 294.477 609.462 293.816 607.371 293.816C604.726 293.816 602.443 294.84 600.523 296.888C598.603 298.893 597.643 301.624 597.643 305.08V323H593.739V290.552H597.643V296.12C599.648 292.067 603.083 290.04 607.947 290.04C611.062 290.04 613.558 291 615.435 292.92C617.312 294.84 618.251 297.315 618.251 300.344V323ZM667.242 323H663.338V317.176C661.631 321.357 658.197 323.448 653.034 323.448C649.877 323.448 647.359 322.509 645.482 320.632C643.647 318.712 642.73 316.195 642.73 313.08V290.552H646.634V311.992C646.634 314.467 647.274 316.365 648.554 317.688C649.877 319.011 651.605 319.672 653.738 319.672C656.597 319.672 658.901 318.648 660.65 316.6C662.442 314.552 663.338 311.885 663.338 308.6V290.552H667.242V323ZM701.501 323H697.597V301.56C697.597 299.043 696.957 297.123 695.677 295.8C694.397 294.477 692.712 293.816 690.621 293.816C687.976 293.816 685.693 294.84 683.773 296.888C681.853 298.893 680.893 301.624 680.893 305.08V323H676.989V290.552H680.893V296.12C682.898 292.067 686.333 290.04 691.197 290.04C694.312 290.04 696.808 291 698.685 292.92C700.562 294.84 701.501 297.315 701.501 300.344V323ZM712.976 307.192C712.976 310.904 713.872 313.933 715.664 316.28C717.499 318.627 719.803 319.8 722.576 319.8C725.349 319.8 727.739 318.797 729.744 316.792C731.749 314.744 732.752 311.352 732.752 306.616C732.752 304.227 732.411 302.157 731.728 300.408C731.088 298.616 730.235 297.272 729.168 296.376C728.144 295.437 727.099 294.776 726.032 294.392C725.008 293.965 723.984 293.752 722.96 293.752C720.059 293.752 717.669 294.925 715.792 297.272C713.915 299.576 712.976 302.883 712.976 307.192ZM736.656 323H732.752V318.264C730.491 321.763 727.141 323.512 722.704 323.512C718.352 323.512 714.96 321.933 712.528 318.776C710.096 315.576 708.88 311.693 708.88 307.128C708.88 302.093 710.181 297.997 712.784 294.84C715.387 291.64 718.736 290.04 722.832 290.04C727.056 290.04 730.363 291.832 732.752 295.416V277.752H736.656V323ZM766.408 323H762.44V279.864H766.408V323ZM800.675 283.512H788.707V323H784.739V283.512H772.835V279.864H800.675V283.512Z" fill="#333333"/>
<path d="M101.762 253H80.7412V147.971H101.762V200.485L140.873 147.971H164.75L131.571 192.282L164.75 253H140.873L117.802 210.52L101.762 231.979V253ZM225.175 243.845C223.563 245.31 221.83 246.701 219.975 248.02C218.168 249.289 216.264 250.412 214.262 251.389C212.26 252.316 210.185 253.049 208.036 253.586C205.937 254.172 203.788 254.465 201.591 254.465C196.757 254.465 192.216 253.61 187.968 251.901C183.72 250.192 179.984 247.775 176.762 244.65C173.588 241.477 171.073 237.644 169.218 233.151C167.411 228.61 166.508 223.532 166.508 217.917V174.558H186.43V217.917C186.43 220.554 186.82 222.922 187.602 225.021C188.432 227.072 189.53 228.806 190.897 230.222C192.265 231.638 193.852 232.712 195.658 233.444C197.514 234.177 199.491 234.543 201.591 234.543C203.642 234.543 205.57 234.079 207.377 233.151C209.232 232.175 210.844 230.905 212.211 229.343C213.578 227.78 214.652 226.022 215.434 224.069C216.215 222.067 216.605 220.017 216.605 217.917V174.558H236.601V253H231.767L225.175 243.845ZM327.714 253H322.88L315.116 242.233C313.212 243.942 311.186 245.554 309.037 247.067C306.938 248.532 304.716 249.826 302.372 250.949C300.028 252.023 297.611 252.878 295.121 253.513C292.68 254.147 290.189 254.465 287.65 254.465C282.133 254.465 276.933 253.439 272.05 251.389C267.216 249.289 262.968 246.408 259.306 242.746C255.692 239.035 252.836 234.665 250.736 229.636C248.637 224.558 247.587 219.04 247.587 213.083C247.587 207.175 248.637 201.682 250.736 196.604C252.836 191.525 255.692 187.131 259.306 183.42C262.968 179.709 267.216 176.804 272.05 174.704C276.933 172.604 282.133 171.555 287.65 171.555C289.408 171.555 291.215 171.701 293.07 171.994C294.975 172.287 296.806 172.775 298.563 173.459C300.37 174.094 302.055 174.948 303.617 176.022C305.18 177.097 306.498 178.415 307.572 179.978V143.356H327.714V253ZM307.572 213.083C307.572 210.349 307.035 207.712 305.961 205.173C304.936 202.585 303.52 200.314 301.713 198.361C299.906 196.359 297.782 194.772 295.341 193.601C292.948 192.38 290.385 191.77 287.65 191.77C284.916 191.77 282.328 192.258 279.887 193.234C277.494 194.211 275.395 195.627 273.588 197.482C271.83 199.289 270.438 201.511 269.413 204.147C268.388 206.784 267.875 209.763 267.875 213.083C267.875 215.964 268.388 218.698 269.413 221.286C270.438 223.874 271.83 226.145 273.588 228.098C275.395 230.051 277.494 231.589 279.887 232.712C282.328 233.835 284.916 234.396 287.65 234.396C290.385 234.396 292.948 233.811 295.341 232.639C297.782 231.418 299.906 229.831 301.713 227.878C303.52 225.876 304.936 223.605 305.961 221.066C307.035 218.479 307.572 215.817 307.572 213.083ZM363.163 253H343.021V143.356H363.163V253ZM402.055 153.244C402.055 155.1 401.688 156.833 400.956 158.444C400.272 160.056 399.32 161.472 398.1 162.692C396.879 163.864 395.438 164.816 393.778 165.549C392.167 166.232 390.434 166.574 388.578 166.574C386.723 166.574 384.965 166.232 383.305 165.549C381.693 164.816 380.277 163.864 379.057 162.692C377.885 161.472 376.933 160.056 376.2 158.444C375.517 156.833 375.175 155.1 375.175 153.244C375.175 151.438 375.517 149.729 376.2 148.117C376.933 146.457 377.885 145.041 379.057 143.869C380.277 142.648 381.693 141.696 383.305 141.013C384.965 140.28 386.723 139.914 388.578 139.914C390.434 139.914 392.167 140.28 393.778 141.013C395.438 141.696 396.879 142.648 398.1 143.869C399.32 145.041 400.272 146.457 400.956 148.117C401.688 149.729 402.055 151.438 402.055 153.244ZM398.612 253H378.471V174.558H398.612V253ZM434.062 253H413.92V143.356H434.062V212.497L463.871 174.704H486.869L460.868 207.37L486.869 253H463.871L447.978 224.509L434.062 242.966V253Z" fill="#333333"/>
<path d="M543.762 168.991V211.032H564.782C567.663 211.032 570.373 210.495 572.912 209.421C575.451 208.298 577.673 206.784 579.577 204.88C581.481 202.976 582.971 200.754 584.045 198.215C585.168 195.627 585.729 192.893 585.729 190.012C585.729 187.131 585.168 184.421 584.045 181.882C582.971 179.294 581.481 177.048 579.577 175.144C577.673 173.239 575.451 171.75 572.912 170.676C570.373 169.553 567.663 168.991 564.782 168.991H543.762ZM543.762 253H522.741V147.971H564.782C568.64 147.971 572.351 148.483 575.915 149.509C579.479 150.485 582.8 151.901 585.876 153.757C589.001 155.563 591.833 157.761 594.372 160.349C596.96 162.888 599.157 165.72 600.964 168.845C602.819 171.97 604.235 175.314 605.212 178.879C606.237 182.443 606.75 186.154 606.75 190.012C606.75 195.773 605.651 201.218 603.454 206.345C601.257 211.423 598.254 215.866 594.445 219.675C590.637 223.483 586.169 226.486 581.042 228.684C575.964 230.881 570.544 231.979 564.782 231.979H543.762V253ZM642.419 253H622.424V194.479H612.683V174.558H622.424V170.822C622.424 165.988 623.327 161.447 625.134 157.199C626.989 152.951 629.504 149.265 632.678 146.14C635.9 142.966 639.636 140.476 643.884 138.669C648.132 136.813 652.673 135.886 657.507 135.886H672.521V155.808H657.507C655.358 155.808 653.356 156.198 651.501 156.979C649.694 157.712 648.107 158.762 646.74 160.129C645.422 161.447 644.372 163.034 643.591 164.89C642.81 166.696 642.419 168.674 642.419 170.822V174.558H666.955V194.479H642.419V253ZM706.213 233.811C706.994 234.055 707.775 234.226 708.557 234.323C709.338 234.372 710.119 234.396 710.9 234.396C712.854 234.396 714.733 234.128 716.54 233.591C718.347 233.054 720.031 232.297 721.594 231.32C723.205 230.295 724.621 229.074 725.842 227.658C727.111 226.193 728.137 224.582 728.918 222.824L743.566 237.546C741.711 240.183 739.562 242.551 737.121 244.65C734.729 246.75 732.116 248.532 729.284 249.997C726.501 251.462 723.547 252.561 720.422 253.293C717.346 254.074 714.172 254.465 710.9 254.465C705.383 254.465 700.183 253.439 695.3 251.389C690.466 249.338 686.218 246.481 682.556 242.819C678.942 239.157 676.086 234.812 673.986 229.782C671.887 224.704 670.837 219.138 670.837 213.083C670.837 206.882 671.887 201.218 673.986 196.091C676.086 190.964 678.942 186.594 682.556 182.98C686.218 179.367 690.466 176.56 695.3 174.558C700.183 172.556 705.383 171.555 710.9 171.555C714.172 171.555 717.37 171.945 720.495 172.727C723.62 173.508 726.574 174.631 729.357 176.096C732.189 177.561 734.826 179.367 737.268 181.516C739.709 183.615 741.857 185.983 743.713 188.62L706.213 233.811ZM716.467 192.575C715.539 192.233 714.611 192.014 713.684 191.916C712.805 191.818 711.877 191.77 710.9 191.77C708.166 191.77 705.578 192.282 703.137 193.308C700.744 194.284 698.645 195.7 696.838 197.556C695.08 199.411 693.688 201.657 692.663 204.294C691.638 206.882 691.125 209.812 691.125 213.083C691.125 213.815 691.149 214.646 691.198 215.573C691.296 216.501 691.418 217.453 691.564 218.43C691.76 219.357 691.979 220.261 692.224 221.14C692.468 222.019 692.785 222.8 693.176 223.483L716.467 192.575ZM777.404 153.244C777.404 155.1 777.038 156.833 776.306 158.444C775.622 160.056 774.67 161.472 773.449 162.692C772.229 163.864 770.788 164.816 769.128 165.549C767.517 166.232 765.783 166.574 763.928 166.574C762.072 166.574 760.314 166.232 758.654 165.549C757.043 164.816 755.627 163.864 754.406 162.692C753.234 161.472 752.282 160.056 751.55 158.444C750.866 156.833 750.524 155.1 750.524 153.244C750.524 151.438 750.866 149.729 751.55 148.117C752.282 146.457 753.234 145.041 754.406 143.869C755.627 142.648 757.043 141.696 758.654 141.013C760.314 140.28 762.072 139.914 763.928 139.914C765.783 139.914 767.517 140.28 769.128 141.013C770.788 141.696 772.229 142.648 773.449 143.869C774.67 145.041 775.622 146.457 776.306 148.117C777.038 149.729 777.404 151.438 777.404 153.244ZM773.962 253H753.82V174.558H773.962V253ZM814.685 253H794.689V194.479H784.948V174.558H794.689V170.822C794.689 165.988 795.593 161.447 797.399 157.199C799.255 152.951 801.77 149.265 804.943 146.14C808.166 142.966 811.901 140.476 816.149 138.669C820.397 136.813 824.938 135.886 829.772 135.886H844.787V155.808H829.772C827.624 155.808 825.622 156.198 823.767 156.979C821.96 157.712 820.373 158.762 819.006 160.129C817.688 161.447 816.638 163.034 815.856 164.89C815.075 166.696 814.685 168.674 814.685 170.822V174.558H839.221V194.479H814.685V253ZM878.479 233.811C879.26 234.055 880.041 234.226 880.822 234.323C881.604 234.372 882.385 234.396 883.166 234.396C885.119 234.396 886.999 234.128 888.806 233.591C890.612 233.054 892.297 232.297 893.859 231.32C895.471 230.295 896.887 229.074 898.107 227.658C899.377 226.193 900.402 224.582 901.184 222.824L915.832 237.546C913.977 240.183 911.828 242.551 909.387 244.65C906.994 246.75 904.382 248.532 901.55 249.997C898.767 251.462 895.812 252.561 892.688 253.293C889.611 254.074 886.438 254.465 883.166 254.465C877.648 254.465 872.448 253.439 867.565 251.389C862.731 249.338 858.483 246.481 854.821 242.819C851.208 239.157 848.352 234.812 846.252 229.782C844.152 224.704 843.103 219.138 843.103 213.083C843.103 206.882 844.152 201.218 846.252 196.091C848.352 190.964 851.208 186.594 854.821 182.98C858.483 179.367 862.731 176.56 867.565 174.558C872.448 172.556 877.648 171.555 883.166 171.555C886.438 171.555 889.636 171.945 892.761 172.727C895.886 173.508 898.84 174.631 901.623 176.096C904.455 177.561 907.092 179.367 909.533 181.516C911.975 183.615 914.123 185.983 915.979 188.62L878.479 233.811ZM888.732 192.575C887.805 192.233 886.877 192.014 885.949 191.916C885.07 191.818 884.143 191.77 883.166 191.77C880.432 191.77 877.844 192.282 875.402 193.308C873.01 194.284 870.91 195.7 869.104 197.556C867.346 199.411 865.954 201.657 864.929 204.294C863.903 206.882 863.391 209.812 863.391 213.083C863.391 213.815 863.415 214.646 863.464 215.573C863.562 216.501 863.684 217.453 863.83 218.43C864.025 219.357 864.245 220.261 864.489 221.14C864.733 222.019 865.051 222.8 865.441 223.483L888.732 192.575ZM946.081 253H926.086V174.558H930.92L937.512 183.859C940.734 180.93 944.396 178.684 948.498 177.121C952.6 175.51 956.848 174.704 961.242 174.704H978.894V194.626H961.242C959.143 194.626 957.165 195.017 955.31 195.798C953.454 196.579 951.843 197.653 950.476 199.021C949.108 200.388 948.034 201.999 947.253 203.854C946.472 205.71 946.081 207.688 946.081 209.787V253Z" fill="#333333"/>
<path fill-rule="evenodd" clip-rule="evenodd" d="M1308.08 294.13C1330.69 274.601 1345 245.722 1345 213.5C1345 154.682 1297.32 107 1238.5 107C1179.68 107 1132 154.682 1132 213.5C1132 215.472 1132.05 217.431 1132.16 219.376C1147.19 228.297 1163.87 237.24 1181.81 245.911C1195.43 252.796 1210.11 259.575 1225.55 266.03C1255.15 278.41 1283.52 287.92 1308.08 294.13ZM1293.55 304.685C1277.49 314.405 1258.65 320 1238.5 320C1187.27 320 1144.49 283.832 1134.3 235.639C1159.3 250.329 1188.73 265.039 1220.83 278.465C1246.1 289.033 1270.69 297.824 1293.55 304.685Z" fill="#333333"/>
<path fill-rule="evenodd" clip-rule="evenodd" d="M1220.83 265.465C1117.76 222.36 1042.31 166.017 1052.31 139.618C1062.32 113.22 1153.99 126.763 1257.07 169.867C1360.15 212.972 1435.6 269.316 1425.59 295.714C1415.58 322.113 1323.91 308.57 1220.83 265.465ZM1225.55 253.03C1142.89 218.463 1081.88 174.608 1089.28 155.077C1096.68 135.546 1169.69 147.736 1252.36 182.303C1335.02 216.87 1396.03 260.725 1388.62 280.256C1381.22 299.786 1308.21 287.597 1225.55 253.03Z" fill="#333333"/>
<path d="M1334.09 258.737C1307.7 311.305 1291.48 237.346 1238.91 210.959C1186.34 184.572 1117.34 215.749 1143.73 163.182C1170.11 110.614 1234.12 89.3909 1286.69 115.778C1339.25 142.165 1360.48 206.17 1334.09 258.737Z" fill="#333333"/>
</svg>
